<svg height="480pt" viewBox="0 0 480 480" width="480pt" xmlns="http://www.w3.org/2000/svg"><path d="m96 384h288c48.601562 0 88 39.398438 88 88h-464c0-48.601562 39.398438-88 88-88zm0 0" fill="#ececec"/><path d="m360 384h-264c-48.601562 0-88 39.398438-88 88h440c0-48.601562-39.398438-88-88-88zm0 0" fill="#f3f3f3"/><path d="m152 472h-40l-48-80v-96h32v88zm0 0" fill="#e4e4e4"/><path d="m88 296h-24v96l48 80h32l-56-88zm0 0" fill="#eaeae8"/><path d="m64 320h32v16h-32zm0 0" fill="#dbdbdb"/><path d="m64 344h32v16h-32zm0 0" fill="#dbdbdb"/><path d="m64 368h32v16h-32zm0 0" fill="#dbdbdb"/><path d="m104 304h-48v-56c0-22.089844 17.910156-40 40-40h8zm0 0" fill="#cbcbcb"/><path d="m96 208c-2.6875-.003906-5.367188.265625-8 .800781v95.199219h16v-96zm0 0" fill="#c3c3c3"/><path d="m335.71875 85.070312c-10.511719 0-16.261719-2.78125-18.480469-8.589843-3.199219-8.410157 3.363281-17.039063 21.960938-28.863281 28.066406-17.613282 59.328125-29.519532 92-35.03125 21.730469-3.546876 32.375-1.472657 35.59375 6.925781 3.199219 8.417969-3.359375 17.046875-21.960938 28.871093-14.03125 8.726563-28.859375 16.097657-44.289062 22.015626-15.464844 5.84375-31.453125 10.203124-47.742188 13.015624-5.640625 1-11.351562 1.554688-17.082031 1.65625zm111.730469-58.199218c-40.09375 3.859375-78.40625 18.457031-110.898438 42.257812 19.988281-1.714844 39.625-6.3125 58.296875-13.648437 18.828125-6.9375 36.546875-16.574219 52.601563-28.609375zm4.359375-1.65625" fill="#fbedbf"/><path d="m376 192h56v96h-56zm0 0" fill="#e4e4e2"/><path d="m384 352h-288v-112c0-79.527344 64.472656-144 144-144s144 64.472656 144 144zm0 0" fill="#ececec"/><path d="m232 96.40625c-76.261719 4.179688-135.964844 67.21875-136 143.59375v112h272v-112c-.035156-76.375-59.738281-139.414062-136-143.59375zm0 0" fill="#f3f3f3"/><path d="m305.0625 311.199219-2.320312.609375c-41.121094 10.878906-84.363282 10.878906-125.484376 0l-2.320312-.609375c-27.378906-7.160157-46.9375-36.847657-46.9375-71.199219s19.558594-64 46.9375-71.199219l2.320312-.609375c41.121094-10.878906 84.363282-10.878906 125.484376 0l2.320312.609375c27.378906 7.199219 46.9375 36.847657 46.9375 71.199219s-19.558594 64.039062-46.9375 71.199219zm0 0" fill="#4799cf"/><path d="m344 232c.246094-18.976562-6.136719-37.445312-18.046875-52.222656-6.070313-5.152344-13.203125-8.898438-20.890625-10.976563l-2.320312-.609375c-41.121094-10.878906-84.363282-10.878906-125.484376 0l-2.320312.609375c-27.378906 7.199219-46.9375 36.847657-46.9375 71.199219-.25 18.976562 6.132812 37.449219 18.046875 52.222656 6.070313 5.152344 13.203125 8.898438 20.890625 10.976563l2.320312.609375c41.121094 10.878906 84.363282 10.878906 125.484376 0l2.320312-.609375c27.378906-7.160157 46.9375-36.847657 46.9375-71.199219zm0 0" fill="#6cbae5"/><path d="m344 232c.246094-18.976562-6.136719-37.445312-18.046875-52.222656-6.070313-5.152344-13.203125-8.898438-20.890625-10.976563l-2.320312-.609375c-41.121094-10.878906-84.363282-10.878906-125.484376 0l-2.320312.609375c-27.378906 7.199219-46.9375 36.847657-46.9375 71.199219-.25 18.976562 6.132812 37.449219 18.046875 52.222656 6.070313 5.152344 13.203125 8.898438 20.890625 10.976563l2.320312.609375c41.121094 10.878906 84.363282 10.878906 125.484376 0l2.320312-.609375c27.378906-7.160157 46.9375-36.847657 46.9375-71.199219zm0 0" fill="#6cbae5"/><path d="m320 232h-104l9.367188-18.734375c4.066406-8.128906 12.375-13.265625 21.464843-13.265625h41.167969l16-16h16zm0 0" fill="#cdcdcd"/><path d="m304 184-16 16h-41.167969c-9.089843 0-17.398437 5.136719-21.464843 13.265625l-9.367188 18.734375h96v-48zm0 0" fill="#d9d9d9"/><path d="m272 232 32 24h24l-8-24zm0 0" fill="#9e9e9e"/><path d="m272 232 32 24h16l-8-24zm0 0" fill="#a8a8a8"/><path d="m428 48c0 19.882812-16.117188 36-36 36s-36-16.117188-36-36 16.117188-36 36-36 36 16.117188 36 36zm0 0" fill="#fd9226"/><path d="m379.199219 14.398438c-13.160157 4.945312-22.214844 17.125-23.148438 31.152343-.9375 14.027344 6.417969 27.304688 18.804688 33.953125 6.050781.945313 12.242187.320313 17.976562-1.824218 13.160157-4.941407 22.214844-17.125 23.148438-31.152344.9375-14.027344-6.417969-27.304688-18.804688-33.953125-6.050781-.949219-12.242187-.320313-17.976562 1.824219zm0 0" fill="#fda453"/><path d="m352 83.449219c-4.171875.007812-7.652344-3.1875-7.992188-7.347657-.339843-4.15625 2.570313-7.878906 6.6875-8.550781 15.0625-2.65625 29.84375-6.695312 44.160157-12.070312 14.230469-5.472657 27.914062-12.261719 40.878906-20.28125 2.421875-1.570313 5.5-1.71875 8.058594-.386719 2.554687 1.335938 4.199219 3.941406 4.296875 6.824219.097656 2.882812-1.363282 5.597656-3.824219 7.097656-13.867187 8.566406-28.507813 15.820313-43.722656 21.664063-15.296875 5.765624-31.097657 10.085937-47.199219 12.90625-.441406.085937-.890625.136718-1.34375.144531zm0 0" fill="#fbedbf"/><path d="m472 120c0 13.253906-10.746094 24-24 24s-24-10.746094-24-24 10.746094-24 24-24 24 10.746094 24 24zm0 0" fill="#d18d28"/><path d="m424 120c.015625 4.394531 1.25 8.699219 3.566406 12.433594 3.734375 2.316406 8.039063 3.550781 12.433594 3.566406 13.253906 0 24-10.746094 24-24-.015625-4.394531-1.25-8.699219-3.566406-12.433594-3.734375-2.316406-8.039063-3.550781-12.433594-3.566406-13.253906 0-24 10.746094-24 24zm0 0" fill="#e69a2c"/><path d="m400 216h16v16h-16zm0 0" fill="#cbcbcb"/><path d="m400 216h8v8h-8zm0 0" fill="#c3c3c3"/><path d="m400 248h16v16h-16zm0 0" fill="#cbcbcb"/><path d="m96 352h288v32h-288zm0 0" fill="#cbcbcb"/><path d="m240 352h144v32h-144zm0 0" fill="#e4e4e2"/><path d="m368 352h16v32h-16zm0 0" fill="#dadad8"/><path d="m248 384h-15.855469v-32h15.855469zm0 0" fill="#c3c3c3"/><path d="m174.9375 311.199219 2.320312.609375c20.007813 5.269531 40.601563 7.996094 61.292969 8.113281-7.8125-46.132813-47.761719-79.898437-94.550781-79.921875h-16c0 34.351562 19.558594 64.039062 46.9375 71.199219zm0 0" fill="#d3605c"/><path d="m144 240h-16c0 .953125.070312 1.894531.105469 2.847656 0 1.136719.0625 2.28125.140625 3.410156.140625 1.789063.328125 3.566407.570312 5.328126.039063.316406.070313.628906.121094.941406.285156 1.96875.632812 3.90625 1.039062 5.816406l.039063.167969c2.359375 11.167969 7.089844 21.695312 13.863281 30.878906.425782.5625.800782 1.128906 1.273438 1.671875.472656.546875.800781.914062 1.160156 1.371094 6.003906 5.054687 13.035156 8.738281 20.609375 10.796875l2.316406.609375c22.039063 5.769531 44.769531 8.445312 67.546875 7.953125-10.988281-42.257813-49.125-71.765625-92.785156-71.792969zm0 0" fill="#ea6b65"/><path d="m128.265625 246.257812c.136719 1.789063.328125 3.566407.566406 5.328126.039063.316406.070313.628906.121094.941406.285156 1.96875.632813 3.90625 1.039063 5.816406l.039062.167969c2.363281 11.167969 7.089844 21.695312 13.863281 30.878906.425781.5625.800781 1.128906 1.273438 1.671875.472656.546875.800781.914062 1.160156 1.371094 6.003906 5.054687 13.035156 8.738281 20.609375 10.796875l2.320312.609375c19.429688 5.046875 39.410157 7.679687 59.484376 7.839844-11.019532-42.199219-49.125-71.652344-92.742188-71.679688h-8c0 .953125.070312 1.894531.105469 2.847656.054687 1.152344.078125 2.28125.160156 3.410156zm0 0" fill="#de6560"/><path d="m184 184h16v16h-16zm0 0" fill="#fbd699"/><path d="m264 272h16v16h-16zm0 0" fill="#4799cf"/><g fill="#f7ba61"><path d="m160 208h16v16h-16zm0 0"/><path d="m16 0h16v16h-16zm0 0"/><path d="m16 32h16v16h-16zm0 0"/><path d="m32 16h16v16h-16zm0 0"/></g><path d="m0 16h16v16h-16zm0 0" fill="#fbd699"/><path d="m80 48h16v16h-16zm0 0" fill="#fbd699"/><path d="m80 96h16v16h-16zm0 0" fill="#f7ba61"/><path d="m104 72h16v16h-16zm0 0" fill="#fbd699"/><path d="m56 72h16v16h-16zm0 0" fill="#f7ba61"/><path d="m160 416h160v56h-160zm0 0" fill="#dbdbdb"/><path d="m160 416h160v32h-160zm0 0" fill="#fbfbfb"/><path d="m376 432h16v40h-16zm0 0" fill="#dbdbdb"/><path d="m344 320h16v32h-16zm0 0" fill="#fbfbfb"/><path d="m312 328h16v24h-16zm0 0" fill="#fbfbfb"/><path d="m88 320h8v16h-8zm0 0" fill="#cfcfcf"/><path d="m88 344h8v16h-8zm0 0" fill="#cfcfcf"/><path d="m88 368h8v16h-8zm0 0" fill="#cfcfcf"/><path d="m400 248h8v8h-8zm0 0" fill="#c3c3c3"/><path d="m152 416h8v56h-8zm0 0" fill="#ececec"/><path d="m336.175781 85.023438c9.226563-.285157 18.398438-1.53125 27.367188-3.710938 12.191406 10.519531 29.167969 13.503906 44.214843 7.777344 15.046876-5.730469 25.738282-19.253906 27.84375-35.21875 32.101563-18.085938 33.597657-27.839844 31.152344-34.335938-1.480468-3.863281-5.464844-13.863281-46.304687-4.855468-12.191407-10.511719-29.167969-13.488282-44.210938-7.757813s-25.730469 19.246094-27.839843 35.207031c-32.101563 18.085938-33.597657 27.839844-31.152344 34.335938 1.050781 2.734375 3.273437 8.558594 18.929687 8.558594zm111.113281-58.078126c-4.109374 3.316407-8.445312 6.339844-12.976562 9.054688-.351562-1.230469-.726562-2.464844-1.191406-3.6875s-1.183594-2.34375-1.753906-3.527344c5.257812-.996094 10.578124-1.609375 15.921874-1.839844zm-45.320312 47.199219c-5.039062 1.921875-10.53125 2.335938-15.800781 1.191407 4.960937-1.542969 9.824219-3.199219 14.34375-4.910157 4.519531-1.714843 9.214843-3.707031 14.046875-5.90625-3.171875 4.371094-7.546875 7.722657-12.589844 9.648438zm-35.519531-37.601562c4.632812-10.335938 15.035156-16.863281 26.359375-16.535157 11.320312.328126 21.332031 7.445313 25.359375 18.03125.734375 2.011719 1.246093 4.09375 1.519531 6.21875-8.074219 4.183594-16.375 7.921876-24.863281 11.199219-8.5 3.195313-17.171875 5.910157-25.976563 8.136719-1.21875-1.765625-2.230468-3.664062-3.015625-5.65625-2.65625-6.929688-2.433593-14.628906.617188-21.394531zm-16.761719 23.457031c.351562 1.230469.726562 2.464844 1.191406 3.6875s1.183594 2.34375 1.753906 3.527344c-5.253906 1.003906-10.574218 1.632812-15.921874 1.875 4.109374-3.328125 8.445312-6.367188 12.976562-9.089844zm0 0"/><path d="m448 88c-17.671875 0-32 14.328125-32 32s14.328125 32 32 32 32-14.328125 32-32-14.328125-32-32-32zm0 48c-8.835938 0-16-7.164062-16-16s7.164062-16 16-16 16 7.164062 16 16-7.164062 16-16 16zm0 0"/><path d="m400 216h16v16h-16zm0 0"/><path d="m400 248h16v16h-16zm0 0"/><path d="m304.800781 319.574219 2.320313-.605469c31.125-8.183594 52.878906-40.65625 52.878906-78.96875s-21.753906-70.785156-52.902344-78.96875l-2.3125-.605469c-42.445312-11.3125-87.113281-11.3125-129.5625 0l-2.328125.605469c-31.140625 8.183594-52.894531 40.65625-52.894531 78.96875-.035156 11.46875 1.996094 22.851562 6 33.601562 7.347656 21.824219 24.832031 38.726563 46.894531 45.328126l2.3125.605468c42.460938 11.316406 87.140625 11.316406 129.601563 0zm12.101563-71.574219h-10.238282l-10.664062-8h18.230469zm-9.597656-56h4.695312v32h-83.054688l3.574219-7.160156c2.699219-5.429688 8.246094-8.859375 14.3125-8.839844h41.167969c2.121094 0 4.15625-.84375 5.65625-2.34375zm-130.335938-15.503906 2.320312-.609375c39.78125-10.589844 81.640626-10.589844 121.421876 0l1.65625.441406c-1.5.273437-2.886719.972656-4 2.015625l-13.679688 13.65625h-37.855469c-12.132812-.039062-23.230469 6.820312-28.625 17.6875l-9.367187 18.738281c-1.238282 2.480469-1.105469 5.425781.351562 7.78125 1.460938 2.359375 4.035156 3.792969 6.808594 3.792969h53.335938l29.863281 22.398438c1.386719 1.039062 3.070312 1.601562 4.800781 1.601562h24c2.570312 0 4.988281-1.234375 6.492188-3.320312 1.503906-2.085938 1.914062-4.769532 1.101562-7.207032l-7.59375-22.777344v-37.519531c10.558594 13.304688 16.210938 29.839844 16 46.824219 0 30.550781-17.230469 57.257812-40.96875 63.503906l-2.320312.609375c-18.199219 4.78125-36.902344 7.390625-55.71875 7.773438-10.992188-46.871094-52.847657-79.980469-100.992188-79.886719h-7.550781c2.703125-27.105469 18.886719-49.808594 40.519531-55.503906zm51.511719 135.199218c-3.449219-.167968-6.886719-.457031-10.320313-.800781-1.265625-.117187-2.519531-.230469-3.785156-.375-2.878906-.3125-5.757812-.679687-8.632812-1.09375-2.148438-.320312-4.300782-.683593-6.453126-1.058593-2.152343-.375-4.378906-.742188-6.554687-1.183594-4.488281-.917969-8.972656-1.910156-13.445313-3.085938l-2.320312-.609375c-2.511719-.683593-4.957031-1.589843-7.304688-2.710937-.265624-.121094-.527343-.21875-.800781-.34375-2.226562-1.113282-4.367187-2.398438-6.398437-3.839844l-1.007813-.714844c-2-1.492187-3.886719-3.128906-5.65625-4.886718l-.945312-.960938c-1.789063-1.855469-3.457031-3.828125-4.992188-5.902344-.238281-.328125-.464843-.671875-.703125-1.007812-1.597656-2.234375-3.050781-4.566406-4.351562-6.984375-.113282-.207031-.207032-.441407-.328125-.65625-1.332031-2.554688-2.511719-5.1875-3.527344-7.878907-.058594-.136718-.121094-.273437-.167969-.417968-1.015625-2.785156-1.871094-5.625-2.554687-8.511719-.09375-.398437-.199219-.800781-.285157-1.175781-.640624-2.859375-1.117187-5.75-1.425781-8.664063 0-.289062-.0625-.566406-.085937-.847656h7.566406c39.25-.097656 73.773438 25.921875 84.496094 63.679687zm0 0"/><path d="m184 184h16v16h-16zm0 0"/><path d="m264 272h16v16h-16zm0 0"/><path d="m160 208h16v16h-16zm0 0"/><path d="m16 0h16v16h-16zm0 0"/><path d="m16 32h16v16h-16zm0 0"/><path d="m32 16h16v16h-16zm0 0"/><path d="m0 16h16v16h-16zm0 0"/><path d="m80 48h16v16h-16zm0 0"/><path d="m80 96h16v16h-16zm0 0"/><path d="m104 72h16v16h-16zm0 0"/><path d="m56 72h16v16h-16zm0 0"/><path d="m392 376.40625v-80.40625h40c4.417969 0 8-3.582031 8-8v-96c0-4.417969-3.582031-8-8-8h-50.824219c-24.042969-60.835938-84.351562-99.429688-149.664062-95.765625-65.3125 3.660156-120.933594 48.75-138.023438 111.894531-25.476562 1.335938-45.457031 22.363282-45.488281 47.871094v56c0 4.417969 3.582031 8 8 8v72.800781c-34.089844 15.640625-55.9570312 49.691407-56 87.199219 0 4.417969 3.582031 8 8 8h464c4.417969 0 8-3.582031 8-8-.074219-49.875-38.300781-91.402344-88-95.59375zm32-176.40625v80h-32v-40c-.042969-13.519531-1.898438-26.972656-5.519531-40zm-320 104v-64c0-75.109375 60.890625-136 136-136s136 60.890625 136 136v104h-16v-24h-16v24h-16v-16h-16v16h-208zm272 56v16h-128v-16zm-272 0h128v16h-128zm-40-112c.011719-15.347656 10.917969-28.527344 25.992188-31.40625-1.269532 7.738281-1.933594 15.5625-1.992188 23.40625v56h-24zm8 96v-8h16v8zm16 16v8h-16v-8zm-16-40v-8h16v8zm-55.601562 144c2.765624-27.136719 19.136718-51.003906 43.457031-63.351562l38.015625 63.351562zm100.128906 0-41.488282-69.160156c5.457032-1.464844 11.054688-2.351563 16.695313-2.640625l45.691406 71.800781zm195.472656 0h-144v-8h144zm0-24h-144v-16h144zm80 24v-32h-16v32h-48v-48c0-4.417969-3.582031-8-8-8h-160c-4.417969 0-8 3.582031-8 8v41.097656l-41.425781-65.097656h273.425781c41.066406.050781 75.441406 31.144531 79.601562 72zm0 0"/></svg>